<svg width="1112" height="495" viewBox="0 0 1112 495" fill="none" xmlns="http://www.w3.org/2000/svg">
<path d="M0 116.896C0 88.1303 11.1702 60.4888 31.1554 39.7997C63.9993 5.79887 114.778 -3.66118 157.662 16.2315L221.84 46.0018C255.458 61.596 295.264 54.1801 321.011 27.5263C346.758 0.87244 386.564 -6.54347 420.182 9.05075L499.84 46.0018C533.458 61.596 573.264 54.1801 599.011 27.5263C624.758 0.872435 664.564 -6.54347 698.182 9.05075L777.84 46.0018C811.458 61.596 851.264 54.1801 877.011 27.5263C902.758 0.872433 942.564 -6.54347 976.182 9.05075L1021.21 29.94C1076.58 55.6209 1112 111.101 1112 172.13V495H0V116.896Z" fill="url(#paint0_linear_4_94)"/>
<defs>
<linearGradient id="paint0_linear_4_94" x1="556.115" y1="58.3478" x2="555.907" y2="495" gradientUnits="userSpaceOnUse">
<stop offset="0.00616278" stop-color="#41A9FA"/>
<stop offset="1" stop-color="#94D2FF"/>
</linearGradient>
</defs>
</svg>
