<svg width="183" height="271" viewBox="0 0 183 271" fill="none" xmlns="http://www.w3.org/2000/svg">
<g clip-path="url(#clip0_244_2)">
<g filter="url(#filter0_d_244_2)">
<mask id="path-1-inside-1_244_2" fill="white">
<path fill-rule="evenodd" clip-rule="evenodd" d="M12.8873 54.1268L37.441 0H145.694H145.695L170.248 54.1268H181C182.105 54.1268 183 55.0222 183 56.1268V67.5916C183 68.6961 182.105 69.5916 181 69.5916L172.321 69.5915L154.463 270.634L154.463 270.628V270.634H28.1671L10.3099 69.5915L2 69.5916C0.895435 69.5916 0 68.6961 0 67.5916V56.1268C0 55.0222 0.895431 54.1268 2 54.1268H12.8873ZM51.5493 21.0423C51.5493 19.3854 52.8924 18.0423 54.5493 18.0423H128.451C130.108 18.0423 131.451 19.3854 131.451 21.0423V35.662C131.451 37.3188 130.108 38.662 128.451 38.662H54.5493C52.8924 38.662 51.5493 37.3188 51.5493 35.662V21.0423Z"/>
</mask>
<path d="M37.441 0V-1H36.7965L36.5303 -0.413114L37.441 0ZM12.8873 54.1268V55.1268H13.5318L13.798 54.5399L12.8873 54.1268ZM145.695 0L146.605 -0.413111L146.339 -1H145.695V0ZM170.248 54.1268L169.337 54.5399L169.604 55.1268H170.248V54.1268ZM181 69.5916L181 70.5916H181V69.5916ZM172.321 69.5915L172.321 68.5915L171.405 68.5915L171.325 69.5031L172.321 69.5915ZM154.463 270.634L153.467 270.723L155.459 270.722L154.463 270.634ZM154.463 270.628L155.459 270.539L153.463 270.628H154.463ZM154.463 270.634V271.634H155.463V270.634H154.463ZM28.1671 270.634L27.171 270.722L27.252 271.634H28.1671V270.634ZM10.3099 69.5915L11.306 69.5031L11.225 68.5915L10.3099 68.5915L10.3099 69.5915ZM2 69.5916L2 70.5916L2.00001 70.5916L2 69.5916ZM36.5303 -0.413114L11.9766 53.7136L13.798 54.5399L38.3517 0.413114L36.5303 -0.413114ZM145.694 -1H37.441V1H145.694V-1ZM145.695 -1H145.694V1H145.695V-1ZM171.159 53.7137L146.605 -0.413111L144.784 0.413111L169.337 54.5399L171.159 53.7137ZM181 53.1268H170.248V55.1268H181V53.1268ZM184 56.1268C184 54.4699 182.657 53.1268 181 53.1268V55.1268C181.552 55.1268 182 55.5745 182 56.1268H184ZM184 67.5916V56.1268H182V67.5916H184ZM181 70.5916C182.657 70.5916 184 69.2484 184 67.5916H182C182 68.1438 181.552 68.5916 181 68.5916V70.5916ZM172.321 70.5915L181 70.5916L181 68.5916L172.321 68.5915L172.321 70.5915ZM155.459 270.722L173.317 69.68L171.325 69.5031L153.467 270.545L155.459 270.722ZM153.467 270.717L153.467 270.723L155.459 270.545L155.459 270.539L153.467 270.717ZM155.463 270.634V270.628H153.463V270.634H155.463ZM28.1671 271.634H154.463V269.634H28.1671V271.634ZM9.31381 69.68L27.171 270.722L29.1632 270.545L11.306 69.5031L9.31381 69.68ZM2.00001 70.5916L10.3099 70.5915L10.3099 68.5915L2 68.5916L2.00001 70.5916ZM-1 67.5916C-1 69.2484 0.343153 70.5916 2 70.5916V68.5916C1.44772 68.5916 1 68.1438 1 67.5916H-1ZM-1 56.1268V67.5916H1V56.1268H-1ZM2 53.1268C0.343145 53.1268 -1 54.4699 -1 56.1268H1C1 55.5745 1.44772 55.1268 2 55.1268V53.1268ZM12.8873 53.1268H2V55.1268H12.8873V53.1268ZM54.5493 17.0423C52.3402 17.0423 50.5493 18.8331 50.5493 21.0423H52.5493C52.5493 19.9377 53.4447 19.0423 54.5493 19.0423V17.0423ZM128.451 17.0423H54.5493V19.0423H128.451V17.0423ZM132.451 21.0423C132.451 18.8331 130.66 17.0423 128.451 17.0423V19.0423C129.555 19.0423 130.451 19.9377 130.451 21.0423H132.451ZM132.451 35.662V21.0423H130.451V35.662H132.451ZM128.451 39.662C130.66 39.662 132.451 37.8711 132.451 35.662H130.451C130.451 36.7665 129.555 37.662 128.451 37.662V39.662ZM54.5493 39.662H128.451V37.662H54.5493V39.662ZM50.5493 35.662C50.5493 37.8711 52.3402 39.662 54.5493 39.662V37.662C53.4447 37.662 52.5493 36.7665 52.5493 35.662H50.5493ZM50.5493 21.0423V35.662H52.5493V21.0423H50.5493Z" fill="#E5E5E5" mask="url(#path-1-inside-1_244_2)"/>
</g>
</g>
<defs>
<filter id="filter0_d_244_2" x="-20" y="-20" width="223" height="310.634" filterUnits="userSpaceOnUse" color-interpolation-filters="sRGB">
<feFlood flood-opacity="0" result="BackgroundImageFix"/>
<feColorMatrix in="SourceAlpha" type="matrix" values="0 0 0 0 0 0 0 0 0 0 0 0 0 0 0 0 0 0 127 0" result="hardAlpha"/>
<feOffset/>
<feGaussianBlur stdDeviation="10"/>
<feComposite in2="hardAlpha" operator="out"/>
<feColorMatrix type="matrix" values="0 0 0 0 0 0 0 0 0 0 0 0 0 0 0 0 0 0 0.1 0"/>
<feBlend mode="normal" in2="BackgroundImageFix" result="effect1_dropShadow_244_2"/>
<feBlend mode="normal" in="SourceGraphic" in2="effect1_dropShadow_244_2" result="shape"/>
</filter>
<clipPath id="clip0_244_2">
<rect width="183" height="271" fill="white"/>
</clipPath>
</defs>
</svg>
