<svg width="183" height="271" viewBox="0 0 183 271" fill="none" xmlns="http://www.w3.org/2000/svg">
<path fill-rule="evenodd" clip-rule="evenodd" d="M37.441 0H0V56.1267C0 55.0222 0.89543 54.1267 2 54.1267H12.8873L37.441 0ZM145.694 0L170.248 54.1267H181C182.105 54.1267 183 55.0222 183 56.1267V0H145.694ZM183 67.5916C183 68.696 182.105 69.5916 181 69.5916H172.321L154.463 270.634H28.1671L10.3099 69.5916H2C0.895435 69.5916 0 68.696 0 67.5916V271H183V67.5916ZM54.5493 18.0422C52.8924 18.0422 51.5493 19.3855 51.5493 21.0422V35.6619C51.5493 37.3188 52.8924 38.6619 54.5493 38.6619H128.451C130.108 38.6619 131.451 37.3188 131.451 35.6619V21.0422C131.451 19.3855 130.108 18.0422 128.451 18.0422H54.5493Z" fill="#E5E5E5"/>
</svg>
